<svg width="128" height="128" viewBox="0 0 128 128" fill="none" xmlns="http://www.w3.org/2000/svg">
<path d="M126.669 70.7492C125.343 83.2276 120.346 95.0323 112.31 104.671C104.275 114.309 93.5613 121.349 81.5251 124.898C69.4889 128.448 56.6704 128.349 44.6905 124.614C32.7106 120.878 22.1073 113.674 14.2216 103.913C6.3359 94.1513 1.52191 82.2708 0.388349 69.7734C-0.745216 57.2759 1.85255 44.7229 7.85319 33.7018C13.8538 22.6808 22.9878 13.6865 34.1001 7.8566C45.2124 2.02668 57.8039 -0.377078 70.2824 0.949131C87.0157 2.72808 102.357 11.0813 112.932 24.1713C123.506 37.2613 128.448 54.0158 126.669 70.7492Z" fill="#F93D01"/>
<path d="M57.8734 117.675C68.481 118.803 79.185 116.76 88.6316 111.805C98.0782 106.85 105.843 99.2045 110.945 89.836C116.046 80.4675 118.255 69.7965 117.292 59.1726C116.329 48.5488 112.237 38.4492 105.534 30.1509C98.8304 21.8527 89.817 15.7284 79.6332 12.5528C69.4494 9.37717 58.5526 9.29265 48.3208 12.3101C38.089 15.3276 28.9818 21.3115 22.1509 29.5049C15.3199 37.6984 11.072 47.7334 9.94434 58.3411C8.44993 72.5616 12.6567 86.7942 21.6417 97.9173C30.6268 109.04 43.6567 116.146 57.8734 117.675ZM68.5654 17.0821C77.8529 18.0693 86.6391 21.7884 93.8129 27.7691C100.987 33.7497 106.226 41.7232 108.868 50.6814C111.51 59.6397 111.437 69.1803 108.657 78.0967C105.876 87.0132 100.515 94.905 93.2495 100.774C85.9843 106.643 77.1418 110.227 67.8402 111.07C58.5386 111.914 49.1957 109.981 40.9929 105.515C32.7901 101.049 26.0959 94.2504 21.7567 85.9798C17.4176 77.7092 15.6283 68.3376 16.6154 59.0501C17.9527 46.6016 24.1733 35.1918 33.9125 27.324C43.6516 19.4562 56.114 15.7729 68.5654 17.0821Z" fill="black"/>
<path d="M59.7068 100.419C68.7309 101.368 77.7858 98.9332 85.1177 93.5873C92.4495 88.2415 97.5364 80.3647 99.3928 71.4829C99.4798 71.0273 99.4708 70.5586 99.3666 70.1066C99.2623 69.6547 99.0651 69.2296 98.7874 68.8581C98.5096 68.4866 98.1574 68.177 97.7534 67.9492C97.3494 67.7214 96.9024 67.5803 96.4408 67.5349C95.607 67.4525 94.7724 67.6835 94.0994 68.1826C93.4264 68.6816 92.9631 69.4133 92.7998 70.235C91.2686 77.4673 87.1102 83.8748 81.1288 88.2189C75.1473 92.5631 67.7676 94.5351 60.4165 93.7538C53.0654 92.9726 46.265 89.4935 41.3302 83.9892C36.3954 78.4849 33.6768 71.3465 33.6998 63.954C33.7139 63.1159 33.4154 62.3023 32.8624 61.6723C32.3095 61.0423 31.5416 60.6407 30.7087 60.5458C30.2479 60.4933 29.7811 60.5376 29.3383 60.6755C28.8954 60.8134 28.4862 61.042 28.1366 61.3469C27.787 61.6517 27.5047 62.026 27.3077 62.446C27.1108 62.8659 27.0036 63.3221 26.9928 63.7858C26.9403 72.8587 30.2569 81.6283 36.3003 88.3957C42.3437 95.1631 50.6838 99.4468 59.7048 100.417" fill="black"/>
<path d="M34.3157 59.4202L46.4207 52.4492L56.7866 61.8083L53.9027 48.1414L66.0027 41.1692L52.1127 39.6934L49.2267 26.0293L43.5267 38.7803L29.6367 37.3042L40.0067 46.6643L34.3157 59.4202Z" fill="black"/>
<path d="M70.6798 63.2849L82.7849 56.314L93.1549 65.6741L90.2668 52.0061L102.373 45.0349L88.4839 43.5591L85.5939 29.895L79.9019 42.647L66.0078 41.1699L76.3789 50.53L70.6798 63.2849Z" fill="black"/>
</svg>
