<svg xmlns="http://www.w3.org/2000/svg" width="71" height="80" viewBox="0 0 71 80"><g><g><path d="M60.938 50.19c2.373 2.278 3.256 6.982 1.471 9.838-1.052 1.685-2.842 2.306-4.456 3.291-1.772 1.08-3.376 2.467-4.96 3.798-2.149 1.807-4.229 3.683-6.51 5.322-5.079 3.65-10.952 6.472-17.244 7.071C12.27 81.123-3.23 64.122.836 47.411c1.92-7.89 7.775-14.566 12.2-21.143 2.938-4.366 5.836-8.763 8.814-13.103 1.41-2.054 3.297-3.885 5.84-4.344 3.285-.594 5.456 1.63 6.873 4.247.995-1.677 2.047-3.407 3.388-4.663 3.858-3.614 8.17-.78 10.865 2.605.274-.406.546-.817.821-1.223-.277.408.26-.396.42-.582.387-.45.834-.885 1.327-1.22 1.413-.958 3.126-1.133 4.721-.526 3.298 1.256 6.65 5.016 4.943 8.686-.547 1.174-1.283 2.3-2.036 3.403 3.984.351 7.334 2.52 6.896 7.29-.283 3.08-2.657 5.86-4.308 8.368l-9.468 14.39c.438-.194.875-.394 1.314-.586 2.664-1.166 5.338-.89 7.492 1.18zm-.469 7.983c1.404-3.365-1.44-8.392-5.353-7.095-1.507.5-2.974 1.358-4.417 2.016l-12.132 5.538c-1.517.692-2.399-1.734-.897-2.42 3.38-1.543 6.747-3.117 10.126-4.662.023-.044.041-.089.07-.132l9.51-14.453c1.566-2.38 3.186-4.735 4.702-7.147.896-1.424 1.568-3.039 1.184-4.77-.63-2.842-3.484-3.123-5.958-2.969-1.908 2.92-3.84 5.825-5.778 8.726a2331.24 2331.24 0 0 1-8.48 12.607c-.93 1.375-2.893-.304-1.969-1.669 2.89-4.266 5.765-8.543 8.627-12.828 1.828-2.737 3.651-5.477 5.454-8.23 1.13-1.728 2.587-3.516 3.428-5.41.81-1.825-.324-3.365-1.795-4.477-1.83-1.383-3.566-1.429-4.987.364.062-.078-.319.48-.509.768l-1.146 1.737-16.606 25.174c-.913 1.384-2.875-.297-1.969-1.669l9.62-14.583c2.041-3.096 4.054-6.215 6.102-9.308-2.6-3.684-5.96-5.649-8.914-1.226-1.7 2.547-3.35 5.13-5.025 7.692l-9.955 15.238c-.907 1.387-2.869-.294-1.97-1.669L32.954 15.68c-.84-2.033-2.188-4.767-4.82-4.33-1.717.284-3.039 1.685-4.004 3.024-.839 1.163-1.605 2.386-2.406 3.575-3.44 5.116-6.883 10.232-10.324 15.347-3.815 5.671-7.409 9.832-8.454 16.746-1.12 7.417 1.84 14.388 7.126 19.563 6.37 6.234 14.82 8.947 23.49 6.472 4.485-1.28 8.523-3.588 12.253-6.346 2.436-1.802 4.646-3.892 6.995-5.805 1.368-1.113 2.758-2.196 4.283-3.086 1.26-.734 2.778-1.234 3.376-2.667z"/></g><g><path d="M69.74 52.579c-.421-1.605-2.84-.7-2.42.896 1.11 4.222-.644 9.156-3.366 11.563-1.232 1.09.237 3.215 1.48 2.114 4.154-3.673 5.703-9.263 4.307-14.573z"/></g><g><path d="M20.784 5.74c2.385-2.182 5.926-3.206 9.102-2.4 1.61.41 2.049-2.134.447-2.541-4.112-1.045-8.48.493-11.52 3.273-1.223 1.12.76 2.775 1.97 1.669z"/></g></g></svg>