<svg width="84" height="84" viewBox="0 0 84 84" fill="none" xmlns="http://www.w3.org/2000/svg">
<path d="M54.1 3.46557L17.3518 10.0247C8.10306 11.6754 1.94369 20.5113 3.59448 29.76L10.1536 66.5082C11.8044 75.757 20.6402 81.9164 29.8889 80.2656L66.6372 73.7065C75.8859 72.0557 82.0453 63.2199 80.3945 53.9711L73.8354 17.2229C72.1846 7.97415 63.3488 1.81479 54.1 3.46557Z" fill="#DC0014"/>
<path d="M45.5055 61.4171L21.3575 44.5831C18.9672 42.8963 17.3406 40.3324 16.8325 37.4513C16.3245 34.5701 16.9761 31.6049 18.6454 29.2022C20.3146 26.7996 22.8662 25.1552 25.7435 24.6261C28.6209 24.0969 31.5907 24.7264 34.0055 26.378L39.9806 30.5147L44.1035 24.6007C45.7838 22.1983 48.3463 20.5589 51.2316 20.0391C54.1168 19.5194 57.0906 20.1622 59.5035 21.8272C60.7051 22.6592 61.7302 23.7206 62.52 24.9503C63.3098 26.18 63.8485 27.5535 64.1053 28.9923C64.3621 30.431 64.3319 31.9061 64.0164 33.3331C63.7008 34.7601 63.106 36.1105 62.2665 37.3067L57.0315 44.7677L45.5055 61.4171ZM26.4315 28.4054C25.0281 28.6543 23.7302 29.3137 22.7021 30.3009C21.6741 31.2881 20.9621 32.5581 20.6565 33.9503C20.3509 35.3424 20.4652 36.7941 20.9852 38.1212C21.5052 39.4482 22.4074 40.5915 23.5775 41.4054L44.5305 56.0098L53.8485 42.5518L59.0915 35.0811C59.6373 34.3036 60.0239 33.4257 60.2289 32.4981C60.4339 31.5705 60.4532 30.611 60.2859 29.6759C60.1186 28.7407 59.7678 27.8489 59.2539 27.0499C58.74 26.2509 58.073 25.5616 57.2915 25.0216C55.7235 23.9393 53.7912 23.5203 51.916 23.8575C50.0409 24.1947 48.3753 25.2606 47.2826 26.8214L40.9475 35.9083L31.7915 29.5694C30.2294 28.4872 28.3018 28.0685 26.4315 28.4054Z" fill="white"/>
</svg>
