<svg width="60" height="60" viewBox="0 0 60 60" fill="none" xmlns="http://www.w3.org/2000/svg">
<rect width="60" height="60" rx="30" fill="url(#paint0_linear_1738_1712)"/>
<path d="M49.2314 25.5985L45.2656 22.291C44.6442 21.7725 43.9033 21.4536 43.1794 21.3926C42.3381 21.325 41.5828 21.6105 41.1044 22.1834L38.018 25.884L26.2416 40.0058L26.2495 40.0124C26.1005 40.1909 26.0086 40.4146 26.0139 40.6568L26.1694 48.3159C26.1753 48.6079 26.3105 48.8822 26.5389 49.0647C26.7148 49.2058 26.932 49.2806 27.1538 49.2806C27.2194 49.2806 27.285 49.274 27.35 49.2609L34.7177 47.7627C34.9409 47.7174 35.1299 47.5914 35.2703 47.4227L35.2775 47.4286L46.9981 33.3744L50.0845 29.6738C51.0118 28.5601 50.6364 26.7705 49.2314 25.5985ZM28.1132 47.0953L28.0246 42.7496L32.2935 46.2448L28.1132 47.0953ZM34.3889 45.4172L28.3889 40.5039L38.8994 27.9013L44.8548 32.8678L34.3889 45.4172ZM48.5718 28.4118L46.1161 31.3558L40.1607 26.3893L42.6164 23.4447C42.6754 23.3738 42.8303 23.3397 43.014 23.3548C43.3336 23.3817 43.6946 23.5451 44.0037 23.803L47.9694 27.1105C48.5869 27.625 48.7109 28.2458 48.5718 28.4118Z" fill="url(#paint1_linear_1738_1712)"/>
<path d="M22.7626 41.4243C22.7127 41.3922 22.6609 41.3672 22.6084 41.3449C22.6024 41.3423 22.5972 41.3384 22.5913 41.3364C22.4771 41.2905 22.3577 41.2695 22.2389 41.2681C22.2323 41.2681 22.2264 41.2668 22.2205 41.2668C22.0998 41.2675 21.9803 41.2918 21.8681 41.3351C21.8622 41.3371 21.8569 41.3384 21.851 41.3403C21.7336 41.3889 21.6246 41.4598 21.5314 41.5523C21.5308 41.553 21.5301 41.553 21.5295 41.5536L21.5275 41.5556C21.5262 41.5569 21.5242 41.5589 21.5229 41.5602L19.0311 44.0513C18.4812 44.598 17.5907 44.598 17.0453 44.0539L16.3563 43.3649C15.8116 42.8202 15.8129 41.929 16.3563 41.3823L18.8513 38.8873C18.852 38.8866 18.8526 38.886 18.8539 38.8846L18.8572 38.8814C18.8579 38.8807 18.8585 38.8794 18.8592 38.8781C18.9511 38.7856 19.0219 38.6773 19.0705 38.5605C19.0731 38.5546 19.0738 38.548 19.0764 38.5421C19.1197 38.4299 19.144 38.3111 19.1447 38.191C19.1447 38.1851 19.1434 38.1792 19.1434 38.1726C19.142 38.0532 19.1204 37.9337 19.0744 37.8196C19.0725 37.815 19.0692 37.811 19.0672 37.8064C19.0449 37.7526 19.0193 37.7001 18.9865 37.6496C18.1669 36.3883 17.592 35.0023 17.2776 33.5303C17.2744 33.5152 17.2678 33.5021 17.2639 33.487C17.2514 33.4391 17.2376 33.3905 17.2186 33.3459C17.2087 33.3229 17.1943 33.3026 17.1831 33.2803C17.1648 33.2455 17.1477 33.2107 17.126 33.1786C17.1116 33.1576 17.0939 33.1398 17.0781 33.1208C17.0539 33.0906 17.0302 33.0598 17.0027 33.0329C16.9882 33.0184 16.9712 33.0073 16.9561 32.9941C16.9233 32.9659 16.8904 32.9371 16.8544 32.9134C16.8412 32.9049 16.8268 32.899 16.813 32.8911C16.7723 32.8668 16.731 32.8432 16.6864 32.8255C16.6699 32.8189 16.6529 32.8156 16.6365 32.8097C16.5932 32.7946 16.5505 32.7796 16.5052 32.771C16.4737 32.7651 16.4416 32.7645 16.4094 32.7612C16.3786 32.7579 16.3484 32.752 16.3162 32.752H12.7823C12.0066 32.752 11.376 32.1213 11.376 31.3463V30.3816C11.376 29.6066 12.0066 28.9759 12.7823 28.9759H16.3143H16.3175C16.3195 28.9759 16.3215 28.9746 16.3234 28.9746C16.4258 28.974 16.5229 28.9536 16.6155 28.9241C16.6312 28.9188 16.647 28.9156 16.6627 28.9096C16.7526 28.8755 16.8353 28.8289 16.9108 28.7718C16.9252 28.7613 16.9377 28.7502 16.9515 28.7384C17.025 28.6754 17.0913 28.6045 17.1438 28.5231C17.1503 28.5126 17.1549 28.5015 17.1608 28.491C17.2133 28.4024 17.2547 28.3059 17.2776 28.2022C17.2783 28.2002 17.2789 28.1989 17.2796 28.197C17.5939 26.7256 18.1688 25.3396 18.9885 24.077C19.0213 24.0265 19.0469 23.974 19.0692 23.9202C19.0712 23.9156 19.0738 23.9116 19.0758 23.9071C19.1217 23.7922 19.1434 23.6728 19.1447 23.5533C19.1447 23.5474 19.146 23.5415 19.146 23.5356C19.1453 23.4149 19.121 23.2961 19.0777 23.1839C19.0758 23.178 19.0744 23.1721 19.0718 23.1661C19.0233 23.0487 18.9524 22.9397 18.8599 22.8466C18.8592 22.8459 18.8592 22.8452 18.8585 22.8446L18.8566 22.8426C18.8546 22.8406 18.8526 22.8387 18.8507 22.8367L16.3602 20.3462C15.8142 19.7963 15.8129 18.9051 16.3576 18.3604L17.0466 17.6714C17.592 17.1267 18.4825 17.128 19.0298 17.6714L21.5308 20.1723C21.5347 20.1763 21.5406 20.1776 21.5446 20.1815C21.6286 20.2629 21.7244 20.3239 21.8281 20.3699C21.8517 20.3804 21.8747 20.3882 21.8983 20.3968C22.0039 20.4342 22.1129 20.4598 22.2251 20.4604H22.2271C22.338 20.4604 22.4495 20.4348 22.5572 20.3961C22.5893 20.385 22.6182 20.3686 22.649 20.3541C22.6871 20.3357 22.7271 20.3252 22.7632 20.3016C24.0245 19.482 25.4105 18.9071 26.8819 18.5927C26.8937 18.5901 26.9042 18.5849 26.916 18.5816C26.9678 18.5685 27.0184 18.554 27.0663 18.5337C27.0912 18.5232 27.1129 18.5081 27.1358 18.4956C27.1686 18.4779 27.2021 18.4621 27.2329 18.4411C27.2592 18.4228 27.2822 18.4011 27.3064 18.3801C27.3301 18.3598 27.3557 18.3414 27.3773 18.3191C27.3996 18.2968 27.4174 18.2712 27.437 18.2462C27.4574 18.2213 27.479 18.1983 27.4961 18.1714C27.5132 18.1458 27.525 18.1183 27.5394 18.0907C27.5545 18.0618 27.5722 18.0343 27.5847 18.0041C27.5978 17.9713 27.6064 17.9371 27.6162 17.903C27.6241 17.8761 27.6346 17.8499 27.6405 17.8216C27.6497 17.7751 27.6523 17.7265 27.6549 17.6786C27.6556 17.6622 27.6602 17.6464 27.6602 17.6294V17.6241C27.6602 17.6228 27.6602 17.6221 27.6602 17.6208V14.0961C27.6602 13.3211 28.2908 12.6904 29.0665 12.6904H30.0305C30.8062 12.6904 31.4369 13.3211 31.4369 14.0961V17.6228V17.6235V17.63C31.4369 17.6517 31.4421 17.6714 31.4434 17.693C31.4461 17.7363 31.448 17.7796 31.4566 17.8216C31.4631 17.8538 31.4743 17.8833 31.4841 17.9142C31.4933 17.9444 31.4999 17.9752 31.5117 18.0041C31.5248 18.0369 31.5432 18.0664 31.5603 18.0973C31.574 18.1222 31.5852 18.1485 31.6009 18.1721C31.6193 18.1996 31.641 18.2239 31.662 18.2489C31.681 18.2725 31.6987 18.2974 31.7204 18.3197C31.742 18.3421 31.767 18.3604 31.7913 18.3801C31.8162 18.4011 31.8392 18.4234 31.8661 18.4418C31.8949 18.4615 31.9271 18.4766 31.9579 18.4936C31.9829 18.5074 32.0065 18.5232 32.0328 18.5343C32.0767 18.5534 32.124 18.5665 32.1712 18.579C32.187 18.5829 32.2008 18.5901 32.2165 18.5934C33.6872 18.9077 35.0738 19.4826 36.3364 20.3023C36.3719 20.3252 36.4119 20.3357 36.4487 20.3541C36.4802 20.3692 36.5097 20.3856 36.5419 20.3968C36.6495 20.4355 36.7597 20.4611 36.8713 20.4611C36.9842 20.4611 37.0944 20.4348 37.2001 20.3974C37.2237 20.3889 37.2467 20.381 37.2703 20.3705C37.374 20.3246 37.4698 20.2636 37.5538 20.1822C37.5577 20.1782 37.5636 20.1769 37.5682 20.173L40.0659 17.6746C40.6159 17.13 41.507 17.1273 42.0517 17.672L42.7408 18.3611C43.1162 18.7365 43.2258 19.2746 43.084 19.753C43.1601 19.755 43.2349 19.7523 43.3117 19.7582C43.8814 19.8061 44.449 19.9656 44.9911 20.2091C45.2851 19.0862 45.0081 17.844 44.1327 16.9692L43.4436 16.2801C42.1338 14.9702 39.9964 14.9689 38.676 16.2801L36.7131 18.2436C35.6704 17.6471 34.5646 17.1877 33.4063 16.8721V14.0961C33.4063 12.2356 31.8923 10.7217 30.0312 10.7217H29.0672C27.2067 10.7217 25.6921 12.2356 25.6921 14.0961V16.8714C24.5338 17.1877 23.4274 17.6464 22.3852 18.243L20.4191 16.2768C19.102 14.9683 16.9633 14.9696 15.6547 16.2795L14.9657 16.9685C13.6558 18.2777 13.6551 20.4151 14.9657 21.7362L16.9285 23.699C16.332 24.7418 15.8733 25.8476 15.5569 27.0059H12.7823C10.9219 27.0059 9.40723 28.5198 9.40723 30.3803V31.345C9.40723 33.2055 10.9212 34.7194 12.7823 34.7194H15.5569C15.8733 35.8784 16.332 36.9841 16.9285 38.0263L14.963 39.9924C13.6545 41.3095 13.6558 43.4469 14.9657 44.7568L15.6547 45.4458C16.3097 46.1008 17.172 46.4282 18.0349 46.4282C18.8979 46.4282 19.7622 46.1014 20.4217 45.4458L22.3852 43.483C23.0474 43.8623 23.7384 44.1786 24.4491 44.4457L24.4058 42.3096C23.8401 42.0543 23.2889 41.7656 22.7626 41.4243Z" fill="url(#paint2_linear_1738_1712)"/>
<path d="M22.3818 30.8622C22.3818 26.9103 25.5968 23.6953 29.5487 23.6953C31.8994 23.6953 33.9837 24.8385 35.2916 26.592L36.5844 25.0419C34.907 23.0181 32.3765 21.7266 29.5487 21.7266C24.5114 21.7266 20.4131 25.8248 20.4131 30.8622C20.4131 34.2793 22.3018 37.26 25.0876 38.8271L26.3777 37.2803C24.0139 36.107 22.3818 33.6749 22.3818 30.8622Z" fill="url(#paint3_linear_1738_1712)"/>
<defs>
<linearGradient id="paint0_linear_1738_1712" x1="30" y1="0" x2="30" y2="60" gradientUnits="userSpaceOnUse">
<stop stop-color="#E7F0FF"/>
<stop offset="1" stop-color="#E8EAFF"/>
</linearGradient>
<linearGradient id="paint1_linear_1738_1712" x1="26.0137" y1="35.3317" x2="50.5926" y2="35.3317" gradientUnits="userSpaceOnUse">
<stop stop-color="#323CEB"/>
<stop offset="1" stop-color="#0596FF"/>
</linearGradient>
<linearGradient id="paint2_linear_1738_1712" x1="9.40723" y1="28.575" x2="45.1041" y2="28.575" gradientUnits="userSpaceOnUse">
<stop stop-color="#323CEB"/>
<stop offset="1" stop-color="#0596FF"/>
</linearGradient>
<linearGradient id="paint3_linear_1738_1712" x1="20.4131" y1="30.2768" x2="36.5844" y2="30.2768" gradientUnits="userSpaceOnUse">
<stop stop-color="#323CEB"/>
<stop offset="1" stop-color="#0596FF"/>
</linearGradient>
</defs>
</svg>
